<svg width="833" height="646" viewBox="0 0 833 646" fill="none" xmlns="http://www.w3.org/2000/svg">
<g id="adventure-frame" clip-path="url(#clip0_1_2)">
<path id="sun" d="M357.768 62.5369C368.134 62.5369 376.537 54.134 376.537 43.7685C376.537 33.4029 368.134 25 357.768 25C347.403 25 339 33.4029 339 43.7685C339 54.134 347.403 62.5369 357.768 62.5369Z" fill="#FFCD1E"/>
<path id="Vector" d="M442.314 162.978L432.959 158.184L433.762 156.617L443.117 161.411L442.314 162.978ZM423.603 153.39L414.247 148.596L415.05 147.029L424.406 151.823L423.603 153.39ZM404.892 143.802L395.536 139.008L396.339 137.441L405.695 142.235L404.892 143.802ZM386.181 134.214L376.825 129.42L377.628 127.853L386.984 132.647L386.181 134.214ZM367.469 124.626L358.114 119.832L358.917 118.265L368.272 123.059L367.469 124.626Z" fill="#CBCBCB"/>
<path id="Vector_2" d="M344.861 111.062L344.058 112.629L348.758 115.038L349.561 113.471L344.861 111.062Z" fill="#CBCBCB"/>
<path id="Vector_3" d="M452.473 166.205L451.67 167.772L456.37 170.181L457.173 168.614L452.473 166.205Z" fill="#CBCBCB"/>
<path id="Vector_4" d="M511.769 107.451C470.529 105.013 429.164 105.648 388.018 109.353C368.187 111.146 348.04 113.082 328.574 117.408C312.896 120.892 294.699 126.781 284.93 140.498C282.884 143.262 281.506 146.461 280.902 149.847C280.298 153.232 280.486 156.711 281.45 160.012C283.779 167.831 289.573 174.34 295.744 179.438C309.947 191.171 327.569 197.999 343.31 207.32C372.05 224.34 398.353 247.28 415.236 276.421C422.665 289.245 429.732 306.295 421.459 320.425C413.355 334.268 395.264 339.037 380.51 341.286C362.017 344.105 342.969 343.34 324.399 341.762C304.041 339.863 283.796 336.898 263.748 332.878C224.473 325.337 185.556 315.744 145.735 311.381C125.769 309.033 105.634 308.451 85.5655 309.641C67.4412 310.864 49.1616 313.731 32.1351 320.266C19.0148 325.302 5.02911 332.921 -2.05799 345.628C-8.88964 357.877 -6.22508 372.002 1.21374 383.303C10.1642 396.9 24.1211 406.218 38.6317 413.029C55.1533 420.783 72.8247 425.809 90.5187 430.084C99.4926 432.252 108.515 434.211 117.538 436.161C119.421 436.568 120.225 433.676 118.336 433.268C100.14 429.336 81.8908 425.392 64.1465 419.7C47.726 414.433 30.9219 407.685 17.475 396.625C6.5964 387.678 -3.74687 374.609 -3.10477 359.75C-2.45748 344.77 10.1106 334.311 22.429 327.874C37.8236 319.829 55.314 315.91 72.4526 313.861C92.0765 311.675 111.867 311.406 131.543 313.058C171.27 316.081 210.109 325.13 249.059 333.023C286.899 340.692 325.92 347.792 364.698 345.825C380.068 345.046 396.537 342.843 410.109 335.085C416.322 331.533 421.925 326.524 425.083 320.005C427.928 313.802 428.828 306.884 427.664 300.16C425.463 285.39 416.69 271.694 407.937 259.93C398.342 247.17 387.212 235.64 374.798 225.602C361.173 214.637 346.483 205.067 330.948 197.036C322.71 192.699 314.355 188.528 306.504 183.504C298.976 178.688 291.55 172.892 286.953 165.072C282.977 158.309 282.248 150.59 286.389 143.73C290.578 136.792 297.794 131.954 304.911 128.418C322.057 119.898 341.991 117.618 360.75 115.281C401.03 110.281 441.623 108.257 482.201 109.226C492.064 109.458 501.92 109.866 511.769 110.451C513.698 110.564 513.691 107.564 511.769 107.451V107.451Z" fill="black"/>
<path id="Path 65" d="M481.679 103H402.045L417.476 80.586L418.586 78.9708L438.694 49.7609C439.05 49.314 439.495 48.9469 440.002 48.6836C440.509 48.4202 441.065 48.2666 441.635 48.2325C442.206 48.1985 442.776 48.2848 443.311 48.486C443.845 48.6871 444.332 48.9985 444.738 49.4C444.842 49.514 444.939 49.6346 445.027 49.7609L481.679 103Z" fill="#6C63FF"/>
<g id="Path 63" filter="url(#filter0_dd_1_2)">
<path d="M430.417 102.999H338.344C338.229 103.001 338.114 102.992 338 102.972L381.547 27.548C381.813 27.0781 382.199 26.6873 382.665 26.4153C383.131 26.1433 383.661 26 384.201 26C384.741 26 385.271 26.1433 385.737 26.4153C386.203 26.6873 386.589 27.0781 386.854 27.548L416.078 78.1618L417.478 80.5833L430.417 102.999Z" fill="#6C63FF"/>
</g>
<path id="Vector_5" d="M376.975 265.235C385.702 269.597 391.015 275.358 391.015 281.677C391.015 295.289 366.384 306.323 336 306.323C322.79 306.323 310.671 304.236 301.187 300.759C311.26 305.794 325.882 308.964 342.162 308.964C372.545 308.964 397.177 297.929 397.177 284.317C397.177 276.623 389.304 269.755 376.975 265.235Z" fill="#F1F1F1"/>
<path id="Vector_6" d="M396.387 274.585C406.235 279.507 412.23 286.008 412.23 293.138C412.23 308.497 384.437 320.948 350.152 320.948C335.246 320.948 321.571 318.593 310.87 314.67C322.236 320.351 338.735 323.928 357.105 323.928C391.389 323.928 419.183 311.477 419.183 296.117C419.183 287.436 410.299 279.685 396.387 274.585Z" fill="#F1F1F1"/>
<path id="Vector_7" d="M369.545 269.353C375.694 272.426 379.437 276.485 379.437 280.937C379.437 290.527 362.084 298.301 340.678 298.301C332.338 298.409 324.042 297.083 316.151 294.381C323.248 297.928 333.549 300.162 345.019 300.162C366.425 300.162 383.778 292.387 383.778 282.797C383.778 277.377 378.232 272.538 369.545 269.353Z" fill="#F1F1F1"/>
<path id="Vector_8" d="M283.155 267.593C283.155 267.593 284.506 287.341 323.237 287.341C361.967 287.341 373.53 267.593 373.53 267.593H283.155Z" fill="#3F3D56"/>
<path id="Vector_9" d="M338.129 215.777C332.537 211.53 325.52 209.61 318.545 210.42C324.778 211.923 330.283 215.573 334.093 220.73C337.903 225.887 339.775 232.221 339.381 238.62C338.987 245.02 336.351 251.076 331.937 255.726C327.523 260.376 321.612 263.323 315.241 264.049C321.335 265.52 327.749 264.849 333.405 262.147C339.062 259.445 343.616 254.878 346.301 249.214C348.987 243.55 349.64 237.134 348.152 231.045C346.664 224.955 343.124 219.564 338.129 215.777V215.777Z" fill="#3F3D56"/>
<path id="Vector_10" d="M325.437 206.856H322.796V269.714H325.437V206.856Z" fill="#3F3D56"/>
<path id="Vector_11" d="M498.984 160.153L498.969 160.128L498.934 158.593L507.207 146.582L498.944 157.444L498.914 157.768L498.631 145.491L505.777 133.038L498.611 143.335L498.686 117.9L498.685 117.815L498.683 117.898L498.209 137.944L491.696 129.802L498.188 139.671L498.045 150.653L492.053 139.935L498.023 152.267L497.944 158.374L497.725 175.291L497.709 176.555C498.261 176.559 498.807 176.55 499.348 176.527L498.973 160.278L498.984 160.153Z" fill="#CBCBCB"/>
<path id="Vector_12" d="M459.373 165.434L459.359 165.41L459.323 163.875L467.596 151.863L459.333 162.725L459.303 163.05L459.02 150.773L466.166 138.32L459 148.616L459.075 123.181L459.075 123.096L459.072 123.18L458.598 143.226L452.085 135.083L458.577 144.953L458.435 155.934L452.442 145.217L458.413 157.549L458.333 163.655L458.114 180.572L458.098 181.836C458.65 181.841 459.197 181.831 459.737 181.809L459.362 165.56L459.373 165.434Z" fill="#CBCBCB"/>
<path id="Vector_13" d="M478.738 148.71L478.724 148.685L478.688 147.15L486.961 135.139L478.698 146.001L478.668 146.325L478.386 134.048L485.531 121.595L478.365 131.891L478.44 106.457L478.44 106.372L478.438 106.455L477.963 126.501L471.451 118.359L477.942 128.228L477.8 139.21L471.807 128.492L477.778 140.824L477.698 146.931L477.48 163.848L477.464 165.112C478.016 165.116 478.562 165.107 479.103 165.084L478.728 148.835L478.738 148.71Z" fill="#CBCBCB"/>
<path id="Vector_14" d="M151.59 441C157.424 441 162.153 436.271 162.153 430.437C162.153 424.603 157.424 419.874 151.59 419.874C145.756 419.874 141.027 424.603 141.027 430.437C141.027 436.271 145.756 441 151.59 441Z" fill="#6C63FF"/>
<path id="Vector_15" d="M517.377 340.164C518.317 340.164 519.079 338.259 519.079 335.909C519.079 333.56 518.317 331.655 517.377 331.655C516.437 331.655 515.675 333.56 515.675 335.909C515.675 338.259 516.437 340.164 517.377 340.164Z" fill="#3F3D56"/>
<g id="birds">
<g id="Group 28">
<path id="Vector_16" d="M491.607 5.05212L497.837 0.069777C492.997 -0.464143 491.009 2.17515 490.195 4.26417C486.414 2.69427 482.299 4.75169 482.299 4.75169L494.763 9.27655C494.134 7.59706 493.039 6.13165 491.607 5.05212V5.05212Z" fill="#3F3D56"/>
<path id="Vector_17" d="M461.375 20.8254L467.605 15.843C462.765 15.3091 460.777 17.9484 459.963 20.0374C456.182 18.4675 452.067 20.525 452.067 20.525L464.531 25.0498C463.902 23.3703 462.807 21.9049 461.375 20.8254V20.8254Z" fill="#3F3D56"/>
<path id="Vector_18" d="M491.309 25.0521L497.538 20.0698C492.699 19.5359 490.71 22.1751 489.896 24.2642C486.116 22.6943 482 24.7517 482 24.7517L494.464 29.2765C493.835 27.597 492.741 26.1316 491.309 25.0521V25.0521Z" fill="#3F3D56"/>
</g>
</g>
<g id="girl">
<path id="Vector_19" d="M467.395 520.239L456.963 520.238L452 480L467.397 480.001L467.395 520.239Z" fill="#FFB7B7"/>
<path id="Vector_20" d="M470.638 534.519L437 534.518V534.092C437 530.62 438.38 527.29 440.835 524.835C443.29 522.38 446.62 521 450.093 521H450.094L470.638 521.001L470.638 534.519Z" fill="#2F2E41"/>
<path id="Vector_21" d="M559.455 265.142C559.201 271.864 558.698 285.095 558.698 285.771C558.698 286.482 548.668 307.251 544.334 316.189L552.411 269.29C552.724 267.485 553.51 265.796 554.69 264.395C555.869 262.995 557.4 261.932 559.124 261.317C559.396 262.573 559.507 263.858 559.455 265.142Z" fill="#3F3D56"/>
<path id="Vector_22" d="M570.399 501.05L560.62 504.683L541.952 468.693L556.385 463.331L570.399 501.05Z" fill="#FFB7B7"/>
<path id="Vector_23" d="M576.415 509.602L544.883 521.317L544.735 520.918C543.526 517.664 543.659 514.062 545.105 510.905C546.552 507.748 549.193 505.295 552.448 504.086L552.448 504.085L571.707 496.93L576.415 509.602Z" fill="#2F2E41"/>
<path id="Vector_24" d="M513.925 226.673L510.521 219.865L481.59 234.331L482.441 240.288L476.91 247.52C476.91 247.52 467.549 252.626 469.251 269.644L470.953 285.812L473.08 306.66L458.189 358.14L450.531 426.214L445 481.098L471.804 479.822L496.481 390.475L539.878 486.629L569.66 478.971L528.816 383.668L523.71 343.675C523.71 343.675 527.114 322.402 510.946 307.936L513.499 300.278V290.84L522.008 245.819L513.925 226.673Z" fill="#2F2E41"/>
<path id="Vector_25" opacity="0.2" d="M522.719 329.431L503.999 395.802L504.961 396.074L523.682 329.702L522.719 329.431Z" fill="black"/>
<path id="Vector_26" d="M515.073 318.357H473.378V322.611H515.073V318.357Z" fill="#3F3D56"/>
<path id="Vector_27" d="M509.06 221.131C520.052 215.122 524.091 201.341 518.083 190.349C512.074 179.358 498.293 175.318 487.301 181.327C476.31 187.335 472.27 201.116 478.279 212.108C484.287 223.1 498.069 227.139 509.06 221.131Z" fill="#FFB7B7"/>
<path id="Vector_28" d="M540.066 196.132C551.148 196.132 560.132 187.148 560.132 176.066C560.132 164.984 551.148 156 540.066 156C528.984 156 520 164.984 520 176.066C520 187.148 528.984 196.132 540.066 196.132Z" fill="#2F2E41"/>
<path id="Vector_29" d="M558.353 170.917C559.144 173.575 559.376 176.369 559.033 179.122C558.69 181.874 557.781 184.526 556.361 186.909C554.942 189.293 553.044 191.356 550.787 192.969C548.53 194.581 545.963 195.709 543.249 196.279C540.534 196.85 537.73 196.852 535.015 196.284C532.3 195.717 529.732 194.593 527.473 192.982C525.214 191.372 523.313 189.312 521.891 186.93C520.469 184.548 519.556 181.898 519.21 179.145C520.648 183.973 523.848 188.083 528.176 190.659C532.503 193.236 537.642 194.092 542.571 193.055C547.5 192.019 551.859 189.167 554.783 185.066C557.706 180.965 558.981 175.914 558.353 170.917V170.917Z" fill="#2F2E41"/>
<path id="Vector_30" d="M479.081 194.931C478.492 200.118 479.631 205.354 482.32 209.829C485.009 214.303 489.098 217.765 493.955 219.679C498.811 221.593 504.163 221.852 509.182 220.416C514.2 218.98 518.605 215.929 521.714 211.735C524.822 207.541 526.46 202.439 526.375 197.22C526.29 192.001 524.486 186.955 521.242 182.865C517.998 178.775 513.496 175.87 508.433 174.598C503.37 173.326 498.03 173.76 493.238 175.832C489.276 172.636 484.363 173.627 480.369 176.999C475.852 180.813 474.512 183.432 471.009 189.704C474.453 190.188 475.637 194.448 479.081 194.931Z" fill="#2F2E41"/>
<path id="Vector_31" d="M562.455 263.142C562.201 269.864 561.698 283.095 561.698 283.771C561.698 284.482 551.668 305.251 547.334 314.189V314.194C547.026 314.824 546.75 315.395 546.505 315.898C546.17 316.592 545.643 317.175 544.986 317.578C544.33 317.981 543.572 318.188 542.802 318.173L523.864 317.833C522.824 317.816 521.83 317.396 521.091 316.663C520.352 315.93 519.924 314.94 519.898 313.899L517.786 230.584C517.779 230.31 517.827 230.036 517.927 229.78C518.028 229.525 518.178 229.291 518.37 229.094C518.562 228.898 518.791 228.741 519.044 228.634C519.297 228.527 519.569 228.472 519.844 228.472H544.266C545.297 228.473 546.308 228.764 547.182 229.312C548.055 229.86 548.757 230.644 549.206 231.572L560.928 255.822C562.027 258.101 562.551 260.614 562.455 263.142V263.142Z" fill="#6C63FF"/>
<path id="Vector_32" d="M519.569 308.182C514.709 305.237 510.343 301.547 506.629 297.246C498 287.542 492.753 275.299 491.674 262.358C490.711 251.286 492.908 243.055 498.204 237.896C504.935 231.336 514.098 232.29 514.485 232.334L514.895 232.38L521.103 237.633L519.346 239.709L513.792 235.009C512.092 234.924 505.15 234.905 500.08 239.865C495.413 244.43 493.496 251.919 494.383 262.123C495.41 274.444 500.394 286.103 508.591 295.36C512.127 299.45 516.273 302.972 520.881 305.8L519.569 308.182Z" fill="#6C63FF"/>
<path id="Vector_33" d="M554.808 276.529L521.719 283.325L521.902 284.213L554.991 277.417L554.808 276.529Z" fill="#3F3D56"/>
<path id="Vector_34" d="M533 228.454L532.094 228.491L534.243 281.141L535.149 281.104L533 228.454Z" fill="#3F3D56"/>
<path id="Vector_35" d="M512.83 361.431C513.545 360.509 514.049 359.442 514.307 358.304C514.565 357.167 514.571 355.987 514.323 354.847C514.076 353.707 513.582 352.635 512.875 351.707C512.169 350.778 511.267 350.016 510.234 349.474L511.876 331.315L501.084 327.626L499.126 353.303C498.33 355.098 498.22 357.123 498.818 358.994C499.415 360.865 500.678 362.452 502.367 363.454C504.057 364.455 506.055 364.803 507.983 364.43C509.911 364.057 511.636 362.99 512.83 361.431V361.431Z" fill="#FFB7B7"/>
<path id="Vector_36" d="M514.24 343.859L495.116 343.166L495.925 250.943C495.912 248.334 496.719 245.786 498.232 243.659C499.745 241.533 501.889 239.936 504.359 239.095C506.667 238.328 509.162 238.326 511.471 239.089C514.091 239.975 516.341 241.709 517.866 244.017C519.391 246.324 520.104 249.073 519.893 251.831L514.24 343.859Z" fill="#CBCBCB"/>
</g>
</g>
<defs>
<filter id="filter0_dd_1_2" x="334" y="26" width="100.417" height="84.9996" filterUnits="userSpaceOnUse" color-interpolation-filters="sRGB">
<feFlood flood-opacity="0" result="BackgroundImageFix"/>
<feColorMatrix in="SourceAlpha" type="matrix" values="0 0 0 0 0 0 0 0 0 0 0 0 0 0 0 0 0 0 127 0" result="hardAlpha"/>
<feOffset dy="4"/>
<feGaussianBlur stdDeviation="2"/>
<feComposite in2="hardAlpha" operator="out"/>
<feColorMatrix type="matrix" values="0 0 0 0 0 0 0 0 0 0 0 0 0 0 0 0 0 0 0.25 0"/>
<feBlend mode="normal" in2="BackgroundImageFix" result="effect1_dropShadow_1_2"/>
<feColorMatrix in="SourceAlpha" type="matrix" values="0 0 0 0 0 0 0 0 0 0 0 0 0 0 0 0 0 0 127 0" result="hardAlpha"/>
<feOffset dy="4"/>
<feGaussianBlur stdDeviation="2"/>
<feComposite in2="hardAlpha" operator="out"/>
<feColorMatrix type="matrix" values="0 0 0 0 0 0 0 0 0 0 0 0 0 0 0 0 0 0 0.25 0"/>
<feBlend mode="normal" in2="effect1_dropShadow_1_2" result="effect2_dropShadow_1_2"/>
<feBlend mode="normal" in="SourceGraphic" in2="effect2_dropShadow_1_2" result="shape"/>
</filter>
<clipPath id="clip0_1_2">
<rect width="832.028" height="646" fill="white"/>
</clipPath>
</defs>
</svg>
